<mxfile host="app.diagrams.net" modified="2023-10-29T22:55:15.068Z" agent="Mozilla/5.0 (Windows NT 10.0; Win64; x64) AppleWebKit/537.36 (KHTML, like Gecko) Chrome/116.0.0.0 Safari/537.36 OPR/102.0.0.0" etag="kg5pSy7wNKQw1lCbdQ_L" version="22.0.8" type="github" pages="5">
  <diagram name="Exercise 1" id="IEjHNJ0pmOHl9RQTl8Xk">
    <mxGraphModel dx="1393" dy="758" grid="1" gridSize="10" guides="1" tooltips="1" connect="1" arrows="1" fold="1" page="1" pageScale="1" pageWidth="980" pageHeight="690" math="0" shadow="0">
      <root>
        <mxCell id="0" />
        <mxCell id="1" parent="0" />
        <mxCell id="KTv329vmwgTg1pqAnI8G-3" value="&lt;b&gt;&lt;font face=&quot;Courier New&quot;&gt;1. From the following statement we want to create the entity-relationship model.&lt;/font&gt;&lt;/b&gt;" style="text;html=1;align=center;verticalAlign=middle;resizable=0;points=[];autosize=1;strokeColor=none;fillColor=none;" parent="1" vertex="1">
          <mxGeometry x="215" y="12" width="600" height="30" as="geometry" />
        </mxCell>
        <mxCell id="KTv329vmwgTg1pqAnI8G-4" value="&lt;div&gt;Entities: Packages, Pronvices, Trucks, truck drivers&lt;/div&gt;&lt;div&gt;&lt;br&gt;&lt;/div&gt;&lt;div&gt;&amp;nbsp;- Packages: Package code, description, recipient, address | Relation: Un conductor de distribuye varios paquetes y un paquete solo puede ser por un conductor.&lt;/div&gt;&lt;div&gt;&amp;nbsp;- Pronvices: Which the packages arrive, province code, name | Relation: Una provincia alcanza a varios paquetes.&lt;/div&gt;&lt;div&gt;&amp;nbsp;- Trucks: License plate, model, Type, Power | Relation: Un conductor conduce varios camiones y un camiÃ³n es conducido por varios conductores.&lt;/div&gt;&lt;div&gt;&amp;nbsp;- Truck drivers: ID, name, telephone number, address, salary, town where they live. |&amp;nbsp;&lt;/div&gt;" style="text;html=1;align=left;verticalAlign=middle;resizable=0;points=[];autosize=1;strokeColor=none;fillColor=none;" parent="1" vertex="1">
          <mxGeometry x="40" y="590" width="880" height="100" as="geometry" />
        </mxCell>
        <mxCell id="KTv329vmwgTg1pqAnI8G-12" value="" style="rounded=0;orthogonalLoop=1;jettySize=auto;html=1;endArrow=none;endFill=0;" parent="1" source="KTv329vmwgTg1pqAnI8G-5" target="KTv329vmwgTg1pqAnI8G-9" edge="1">
          <mxGeometry relative="1" as="geometry" />
        </mxCell>
        <mxCell id="KTv329vmwgTg1pqAnI8G-14" value="" style="edgeStyle=orthogonalEdgeStyle;rounded=0;orthogonalLoop=1;jettySize=auto;html=1;endArrow=none;endFill=0;" parent="1" source="KTv329vmwgTg1pqAnI8G-5" target="KTv329vmwgTg1pqAnI8G-11" edge="1">
          <mxGeometry relative="1" as="geometry" />
        </mxCell>
        <mxCell id="KTv329vmwgTg1pqAnI8G-5" value="Packages" style="whiteSpace=wrap;html=1;align=center;" parent="1" vertex="1">
          <mxGeometry x="330" y="160" width="100" height="40" as="geometry" />
        </mxCell>
        <mxCell id="KTv329vmwgTg1pqAnI8G-45" style="rounded=0;orthogonalLoop=1;jettySize=auto;html=1;entryX=0;entryY=0.5;entryDx=0;entryDy=0;endArrow=none;endFill=0;" parent="1" source="KTv329vmwgTg1pqAnI8G-6" target="KTv329vmwgTg1pqAnI8G-43" edge="1">
          <mxGeometry relative="1" as="geometry" />
        </mxCell>
        <mxCell id="KTv329vmwgTg1pqAnI8G-46" style="rounded=0;orthogonalLoop=1;jettySize=auto;html=1;entryX=0;entryY=0.5;entryDx=0;entryDy=0;endArrow=none;endFill=0;exitX=1;exitY=0;exitDx=0;exitDy=0;" parent="1" source="KTv329vmwgTg1pqAnI8G-6" target="KTv329vmwgTg1pqAnI8G-42" edge="1">
          <mxGeometry relative="1" as="geometry" />
        </mxCell>
        <mxCell id="KTv329vmwgTg1pqAnI8G-47" style="rounded=0;orthogonalLoop=1;jettySize=auto;html=1;entryX=0;entryY=0.5;entryDx=0;entryDy=0;endArrow=none;endFill=0;exitX=1;exitY=1;exitDx=0;exitDy=0;" parent="1" source="KTv329vmwgTg1pqAnI8G-6" target="KTv329vmwgTg1pqAnI8G-44" edge="1">
          <mxGeometry relative="1" as="geometry" />
        </mxCell>
        <mxCell id="KTv329vmwgTg1pqAnI8G-6" value="Provinces" style="whiteSpace=wrap;html=1;align=center;" parent="1" vertex="1">
          <mxGeometry x="600" y="160" width="100" height="40" as="geometry" />
        </mxCell>
        <mxCell id="KTv329vmwgTg1pqAnI8G-16" value="" style="rounded=0;orthogonalLoop=1;jettySize=auto;html=1;endArrow=none;endFill=0;" parent="1" source="KTv329vmwgTg1pqAnI8G-7" target="KTv329vmwgTg1pqAnI8G-10" edge="1">
          <mxGeometry relative="1" as="geometry" />
        </mxCell>
        <mxCell id="KTv329vmwgTg1pqAnI8G-34" style="rounded=0;orthogonalLoop=1;jettySize=auto;html=1;entryX=1;entryY=1;entryDx=0;entryDy=0;endArrow=none;endFill=0;" parent="1" source="KTv329vmwgTg1pqAnI8G-7" target="KTv329vmwgTg1pqAnI8G-27" edge="1">
          <mxGeometry relative="1" as="geometry" />
        </mxCell>
        <mxCell id="KTv329vmwgTg1pqAnI8G-36" style="rounded=0;orthogonalLoop=1;jettySize=auto;html=1;entryX=1;entryY=0.5;entryDx=0;entryDy=0;endArrow=none;endFill=0;" parent="1" source="KTv329vmwgTg1pqAnI8G-7" target="KTv329vmwgTg1pqAnI8G-28" edge="1">
          <mxGeometry relative="1" as="geometry" />
        </mxCell>
        <mxCell id="KTv329vmwgTg1pqAnI8G-37" style="rounded=0;orthogonalLoop=1;jettySize=auto;html=1;entryX=1;entryY=0;entryDx=0;entryDy=0;endArrow=none;endFill=0;" parent="1" source="KTv329vmwgTg1pqAnI8G-7" target="KTv329vmwgTg1pqAnI8G-29" edge="1">
          <mxGeometry relative="1" as="geometry" />
        </mxCell>
        <mxCell id="KTv329vmwgTg1pqAnI8G-40" style="rounded=0;orthogonalLoop=1;jettySize=auto;html=1;entryX=0;entryY=0;entryDx=0;entryDy=0;endArrow=none;endFill=0;" parent="1" source="KTv329vmwgTg1pqAnI8G-7" target="KTv329vmwgTg1pqAnI8G-32" edge="1">
          <mxGeometry relative="1" as="geometry" />
        </mxCell>
        <mxCell id="KTv329vmwgTg1pqAnI8G-7" value="Truck driver" style="whiteSpace=wrap;html=1;align=center;" parent="1" vertex="1">
          <mxGeometry x="330" y="346" width="100" height="40" as="geometry" />
        </mxCell>
        <mxCell id="Wo-e9K6KGjCM8ya-YIep-5" style="rounded=0;orthogonalLoop=1;jettySize=auto;html=1;entryX=0;entryY=0.5;entryDx=0;entryDy=0;endArrow=none;endFill=0;" parent="1" source="KTv329vmwgTg1pqAnI8G-8" target="Wo-e9K6KGjCM8ya-YIep-2" edge="1">
          <mxGeometry relative="1" as="geometry" />
        </mxCell>
        <mxCell id="Wo-e9K6KGjCM8ya-YIep-6" style="rounded=0;orthogonalLoop=1;jettySize=auto;html=1;entryX=0;entryY=1;entryDx=0;entryDy=0;endArrow=none;endFill=0;exitX=1;exitY=0;exitDx=0;exitDy=0;" parent="1" source="KTv329vmwgTg1pqAnI8G-8" target="Wo-e9K6KGjCM8ya-YIep-1" edge="1">
          <mxGeometry relative="1" as="geometry" />
        </mxCell>
        <mxCell id="Wo-e9K6KGjCM8ya-YIep-7" style="rounded=0;orthogonalLoop=1;jettySize=auto;html=1;entryX=0;entryY=0;entryDx=0;entryDy=0;endArrow=none;endFill=0;exitX=1;exitY=1;exitDx=0;exitDy=0;" parent="1" source="KTv329vmwgTg1pqAnI8G-8" target="Wo-e9K6KGjCM8ya-YIep-4" edge="1">
          <mxGeometry relative="1" as="geometry" />
        </mxCell>
        <mxCell id="KTv329vmwgTg1pqAnI8G-8" value="Trucks" style="whiteSpace=wrap;html=1;align=center;" parent="1" vertex="1">
          <mxGeometry x="600" y="346" width="100" height="40" as="geometry" />
        </mxCell>
        <mxCell id="KTv329vmwgTg1pqAnI8G-13" value="" style="rounded=0;orthogonalLoop=1;jettySize=auto;html=1;endArrow=none;endFill=0;" parent="1" source="KTv329vmwgTg1pqAnI8G-9" target="KTv329vmwgTg1pqAnI8G-6" edge="1">
          <mxGeometry relative="1" as="geometry" />
        </mxCell>
        <mxCell id="KTv329vmwgTg1pqAnI8G-9" value="reaches" style="shape=rhombus;perimeter=rhombusPerimeter;whiteSpace=wrap;html=1;align=center;" parent="1" vertex="1">
          <mxGeometry x="455" y="150" width="120" height="60" as="geometry" />
        </mxCell>
        <mxCell id="KTv329vmwgTg1pqAnI8G-17" value="" style="rounded=0;orthogonalLoop=1;jettySize=auto;html=1;endArrow=none;endFill=0;" parent="1" source="KTv329vmwgTg1pqAnI8G-10" target="KTv329vmwgTg1pqAnI8G-8" edge="1">
          <mxGeometry relative="1" as="geometry" />
        </mxCell>
        <mxCell id="KTv329vmwgTg1pqAnI8G-10" value="drives" style="shape=rhombus;perimeter=rhombusPerimeter;whiteSpace=wrap;html=1;align=center;" parent="1" vertex="1">
          <mxGeometry x="455" y="336" width="120" height="60" as="geometry" />
        </mxCell>
        <mxCell id="KTv329vmwgTg1pqAnI8G-15" value="" style="rounded=0;orthogonalLoop=1;jettySize=auto;html=1;endArrow=none;endFill=0;" parent="1" source="KTv329vmwgTg1pqAnI8G-11" target="KTv329vmwgTg1pqAnI8G-7" edge="1">
          <mxGeometry relative="1" as="geometry" />
        </mxCell>
        <mxCell id="KTv329vmwgTg1pqAnI8G-11" value="distributed" style="shape=rhombus;perimeter=rhombusPerimeter;whiteSpace=wrap;html=1;align=center;" parent="1" vertex="1">
          <mxGeometry x="320" y="247" width="120" height="60" as="geometry" />
        </mxCell>
        <mxCell id="KTv329vmwgTg1pqAnI8G-26" value="" style="rounded=0;orthogonalLoop=1;jettySize=auto;html=1;endArrow=none;endFill=0;" parent="1" source="KTv329vmwgTg1pqAnI8G-19" target="KTv329vmwgTg1pqAnI8G-5" edge="1">
          <mxGeometry relative="1" as="geometry" />
        </mxCell>
        <mxCell id="KTv329vmwgTg1pqAnI8G-19" value="Package code" style="ellipse;whiteSpace=wrap;html=1;align=center;fontStyle=4;" parent="1" vertex="1">
          <mxGeometry x="330" y="80" width="100" height="40" as="geometry" />
        </mxCell>
        <mxCell id="KTv329vmwgTg1pqAnI8G-25" style="rounded=0;orthogonalLoop=1;jettySize=auto;html=1;entryX=0;entryY=0;entryDx=0;entryDy=0;endArrow=none;endFill=0;" parent="1" source="KTv329vmwgTg1pqAnI8G-20" target="KTv329vmwgTg1pqAnI8G-5" edge="1">
          <mxGeometry relative="1" as="geometry" />
        </mxCell>
        <mxCell id="KTv329vmwgTg1pqAnI8G-20" value="Description" style="ellipse;whiteSpace=wrap;html=1;align=center;" parent="1" vertex="1">
          <mxGeometry x="215" y="100" width="100" height="40" as="geometry" />
        </mxCell>
        <mxCell id="KTv329vmwgTg1pqAnI8G-24" value="" style="rounded=0;orthogonalLoop=1;jettySize=auto;html=1;endArrow=none;endFill=0;" parent="1" source="KTv329vmwgTg1pqAnI8G-21" target="KTv329vmwgTg1pqAnI8G-5" edge="1">
          <mxGeometry relative="1" as="geometry" />
        </mxCell>
        <mxCell id="KTv329vmwgTg1pqAnI8G-21" value="Recipient" style="ellipse;whiteSpace=wrap;html=1;align=center;" parent="1" vertex="1">
          <mxGeometry x="190" y="160" width="100" height="40" as="geometry" />
        </mxCell>
        <mxCell id="KTv329vmwgTg1pqAnI8G-23" style="rounded=0;orthogonalLoop=1;jettySize=auto;html=1;entryX=0;entryY=1;entryDx=0;entryDy=0;endArrow=none;endFill=0;" parent="1" source="KTv329vmwgTg1pqAnI8G-22" target="KTv329vmwgTg1pqAnI8G-5" edge="1">
          <mxGeometry relative="1" as="geometry">
            <mxPoint x="340" y="231" as="targetPoint" />
          </mxGeometry>
        </mxCell>
        <mxCell id="KTv329vmwgTg1pqAnI8G-22" value="Address" style="ellipse;whiteSpace=wrap;html=1;align=center;" parent="1" vertex="1">
          <mxGeometry x="215" y="211" width="100" height="40" as="geometry" />
        </mxCell>
        <mxCell id="KTv329vmwgTg1pqAnI8G-27" value="Name" style="ellipse;whiteSpace=wrap;html=1;align=center;" parent="1" vertex="1">
          <mxGeometry x="227" y="296" width="100" height="40" as="geometry" />
        </mxCell>
        <mxCell id="KTv329vmwgTg1pqAnI8G-28" value="ID" style="ellipse;whiteSpace=wrap;html=1;align=center;fontStyle=4;" parent="1" vertex="1">
          <mxGeometry x="210" y="346" width="100" height="40" as="geometry" />
        </mxCell>
        <mxCell id="KTv329vmwgTg1pqAnI8G-29" value="Telephone number" style="ellipse;whiteSpace=wrap;html=1;align=center;" parent="1" vertex="1">
          <mxGeometry x="227" y="396" width="100" height="40" as="geometry" />
        </mxCell>
        <mxCell id="KTv329vmwgTg1pqAnI8G-31" value="Address" style="ellipse;whiteSpace=wrap;html=1;align=center;" parent="1" vertex="1">
          <mxGeometry x="270" y="440" width="100" height="40" as="geometry" />
        </mxCell>
        <mxCell id="KTv329vmwgTg1pqAnI8G-32" value="Town" style="ellipse;whiteSpace=wrap;html=1;align=center;" parent="1" vertex="1">
          <mxGeometry x="430" y="400" width="100" height="40" as="geometry" />
        </mxCell>
        <mxCell id="KTv329vmwgTg1pqAnI8G-33" value="Salary" style="ellipse;whiteSpace=wrap;html=1;align=center;" parent="1" vertex="1">
          <mxGeometry x="380" y="440" width="100" height="40" as="geometry" />
        </mxCell>
        <mxCell id="KTv329vmwgTg1pqAnI8G-38" style="rounded=0;orthogonalLoop=1;jettySize=auto;html=1;entryX=0.704;entryY=0.022;entryDx=0;entryDy=0;entryPerimeter=0;endArrow=none;endFill=0;" parent="1" source="KTv329vmwgTg1pqAnI8G-7" target="KTv329vmwgTg1pqAnI8G-31" edge="1">
          <mxGeometry relative="1" as="geometry" />
        </mxCell>
        <mxCell id="KTv329vmwgTg1pqAnI8G-39" style="rounded=0;orthogonalLoop=1;jettySize=auto;html=1;entryX=0.301;entryY=0.04;entryDx=0;entryDy=0;entryPerimeter=0;endArrow=none;endFill=0;" parent="1" source="KTv329vmwgTg1pqAnI8G-7" target="KTv329vmwgTg1pqAnI8G-33" edge="1">
          <mxGeometry relative="1" as="geometry" />
        </mxCell>
        <mxCell id="KTv329vmwgTg1pqAnI8G-42" value="Packages arrive" style="ellipse;whiteSpace=wrap;html=1;align=center;" parent="1" vertex="1">
          <mxGeometry x="740" y="100" width="100" height="40" as="geometry" />
        </mxCell>
        <mxCell id="KTv329vmwgTg1pqAnI8G-43" value="Province code" style="ellipse;whiteSpace=wrap;html=1;align=center;fontStyle=4;" parent="1" vertex="1">
          <mxGeometry x="750" y="160" width="100" height="40" as="geometry" />
        </mxCell>
        <mxCell id="KTv329vmwgTg1pqAnI8G-44" value="Name" style="ellipse;whiteSpace=wrap;html=1;align=center;" parent="1" vertex="1">
          <mxGeometry x="740" y="220" width="100" height="40" as="geometry" />
        </mxCell>
        <mxCell id="Wo-e9K6KGjCM8ya-YIep-1" value="ID" style="ellipse;whiteSpace=wrap;html=1;align=center;fontStyle=4;" parent="1" vertex="1">
          <mxGeometry x="730" y="290" width="100" height="40" as="geometry" />
        </mxCell>
        <mxCell id="Wo-e9K6KGjCM8ya-YIep-2" value="License plate" style="ellipse;whiteSpace=wrap;html=1;align=center;" parent="1" vertex="1">
          <mxGeometry x="740" y="346" width="100" height="40" as="geometry" />
        </mxCell>
        <mxCell id="Wo-e9K6KGjCM8ya-YIep-4" value="Model" style="ellipse;whiteSpace=wrap;html=1;align=center;" parent="1" vertex="1">
          <mxGeometry x="730" y="400" width="100" height="40" as="geometry" />
        </mxCell>
        <mxCell id="NfUxQeWdDpjp0sWM3QvV-1" value="(1,n)" style="text;html=1;align=center;verticalAlign=middle;resizable=0;points=[];autosize=1;strokeColor=none;fillColor=none;" vertex="1" parent="1">
          <mxGeometry x="335" y="200" width="50" height="30" as="geometry" />
        </mxCell>
        <mxCell id="NfUxQeWdDpjp0sWM3QvV-2" value="(1,1)" style="text;html=1;align=center;verticalAlign=middle;resizable=0;points=[];autosize=1;strokeColor=none;fillColor=none;" vertex="1" parent="1">
          <mxGeometry x="335" y="318" width="50" height="30" as="geometry" />
        </mxCell>
        <mxCell id="NfUxQeWdDpjp0sWM3QvV-3" value="N:1" style="text;html=1;align=center;verticalAlign=middle;resizable=0;points=[];autosize=1;strokeColor=none;fillColor=none;" vertex="1" parent="1">
          <mxGeometry x="440" y="262" width="40" height="30" as="geometry" />
        </mxCell>
        <mxCell id="NfUxQeWdDpjp0sWM3QvV-4" value="(1,n)" style="text;html=1;align=center;verticalAlign=middle;resizable=0;points=[];autosize=1;strokeColor=none;fillColor=none;" vertex="1" parent="1">
          <mxGeometry x="425" y="138" width="50" height="30" as="geometry" />
        </mxCell>
        <mxCell id="NfUxQeWdDpjp0sWM3QvV-5" value="(1,n)" style="text;html=1;align=center;verticalAlign=middle;resizable=0;points=[];autosize=1;strokeColor=none;fillColor=none;" vertex="1" parent="1">
          <mxGeometry x="555" y="138" width="50" height="30" as="geometry" />
        </mxCell>
        <mxCell id="NfUxQeWdDpjp0sWM3QvV-6" value="N:M" style="text;html=1;align=center;verticalAlign=middle;resizable=0;points=[];autosize=1;strokeColor=none;fillColor=none;" vertex="1" parent="1">
          <mxGeometry x="490" y="120" width="50" height="30" as="geometry" />
        </mxCell>
        <mxCell id="NfUxQeWdDpjp0sWM3QvV-7" value="(1,n)" style="text;html=1;align=center;verticalAlign=middle;resizable=0;points=[];autosize=1;strokeColor=none;fillColor=none;" vertex="1" parent="1">
          <mxGeometry x="555" y="328" width="50" height="30" as="geometry" />
        </mxCell>
        <mxCell id="NfUxQeWdDpjp0sWM3QvV-8" value="(1,n)" style="text;html=1;align=center;verticalAlign=middle;resizable=0;points=[];autosize=1;strokeColor=none;fillColor=none;" vertex="1" parent="1">
          <mxGeometry x="420" y="330" width="50" height="30" as="geometry" />
        </mxCell>
        <mxCell id="NfUxQeWdDpjp0sWM3QvV-9" value="N:M" style="text;html=1;align=center;verticalAlign=middle;resizable=0;points=[];autosize=1;strokeColor=none;fillColor=none;" vertex="1" parent="1">
          <mxGeometry x="489" y="303" width="50" height="30" as="geometry" />
        </mxCell>
      </root>
    </mxGraphModel>
  </diagram>
  <diagram id="7PCTT4p-_xo4xljGVVLw" name="Exercise 2">
    <mxGraphModel dx="1393" dy="758" grid="1" gridSize="10" guides="1" tooltips="1" connect="1" arrows="1" fold="1" page="1" pageScale="1" pageWidth="980" pageHeight="690" math="0" shadow="0">
      <root>
        <mxCell id="0" />
        <mxCell id="1" parent="0" />
        <mxCell id="mZIZw0Aj9IpojoDTm3ix-1" value="Each course has a group of students, one of whom is the group delegate" style="text;html=1;align=center;verticalAlign=middle;resizable=0;points=[];autosize=1;strokeColor=none;fillColor=none;" vertex="1" parent="1">
          <mxGeometry x="285" y="650" width="410" height="30" as="geometry" />
        </mxCell>
        <mxCell id="6dr4hZ84aIYjJ2-IWwdi-1" value="&lt;b&gt;&lt;font face=&quot;Courier New&quot;&gt;1. From the following statement we want to create the entity-relationship model.&lt;/font&gt;&lt;/b&gt;" style="text;html=1;align=center;verticalAlign=middle;resizable=0;points=[];autosize=1;strokeColor=none;fillColor=none;" vertex="1" parent="1">
          <mxGeometry x="215" y="12" width="600" height="30" as="geometry" />
        </mxCell>
        <mxCell id="6dr4hZ84aIYjJ2-IWwdi-4" value="Teachers" style="whiteSpace=wrap;html=1;align=center;" vertex="1" parent="1">
          <mxGeometry x="230" y="200" width="100" height="40" as="geometry" />
        </mxCell>
        <mxCell id="6dr4hZ84aIYjJ2-IWwdi-5" value="ID" style="ellipse;whiteSpace=wrap;html=1;align=center;fontStyle=4;" vertex="1" parent="1">
          <mxGeometry x="160" y="110" width="100" height="40" as="geometry" />
        </mxCell>
        <mxCell id="6dr4hZ84aIYjJ2-IWwdi-6" value="DNI/RFC" style="ellipse;whiteSpace=wrap;html=1;align=center;" vertex="1" parent="1">
          <mxGeometry x="105" y="155" width="100" height="40" as="geometry" />
        </mxCell>
        <mxCell id="6dr4hZ84aIYjJ2-IWwdi-7" value="Name" style="ellipse;whiteSpace=wrap;html=1;align=center;" vertex="1" parent="1">
          <mxGeometry x="70" y="200" width="100" height="40" as="geometry" />
        </mxCell>
        <mxCell id="6dr4hZ84aIYjJ2-IWwdi-8" value="Address" style="ellipse;whiteSpace=wrap;html=1;align=center;" vertex="1" parent="1">
          <mxGeometry x="105" y="250" width="100" height="40" as="geometry" />
        </mxCell>
        <mxCell id="6dr4hZ84aIYjJ2-IWwdi-9" value="Telephone number" style="ellipse;whiteSpace=wrap;html=1;align=center;" vertex="1" parent="1">
          <mxGeometry x="160" y="300" width="100" height="40" as="geometry" />
        </mxCell>
        <mxCell id="6dr4hZ84aIYjJ2-IWwdi-10" value="Attribute" style="ellipse;whiteSpace=wrap;html=1;align=center;" vertex="1" parent="1">
          <mxGeometry y="250" width="70" height="40" as="geometry" />
        </mxCell>
      </root>
    </mxGraphModel>
  </diagram>
  <diagram id="IUV63heYTPsnleTIgkoK" name="Exercise 3">
    <mxGraphModel dx="1393" dy="758" grid="1" gridSize="10" guides="1" tooltips="1" connect="1" arrows="1" fold="1" page="1" pageScale="1" pageWidth="980" pageHeight="690" math="0" shadow="0">
      <root>
        <mxCell id="0" />
        <mxCell id="1" parent="0" />
      </root>
    </mxGraphModel>
  </diagram>
  <diagram id="7nUcBt8FXFZmgiSjwDjB" name="Exercise 4">
    <mxGraphModel dx="1393" dy="758" grid="1" gridSize="10" guides="1" tooltips="1" connect="1" arrows="1" fold="1" page="1" pageScale="1" pageWidth="980" pageHeight="690" math="0" shadow="0">
      <root>
        <mxCell id="0" />
        <mxCell id="1" parent="0" />
      </root>
    </mxGraphModel>
  </diagram>
  <diagram id="HNXfO_0198Zq4pFDoudf" name="Exercise 5">
    <mxGraphModel dx="1393" dy="758" grid="1" gridSize="10" guides="1" tooltips="1" connect="1" arrows="1" fold="1" page="1" pageScale="1" pageWidth="980" pageHeight="690" math="0" shadow="0">
      <root>
        <mxCell id="0" />
        <mxCell id="1" parent="0" />
      </root>
    </mxGraphModel>
  </diagram>
</mxfile>
